<svg width="152" height="63" viewBox="0 0 152 63" fill="none" xmlns="http://www.w3.org/2000/svg">
<path d="M27.0117 21V-1.43051e-06H34.5117V6H36.0117V4.5H37.5117V3H39.0117V1.5H40.5117V-1.43051e-06H46.5117V3H45.0117V4.5H43.5117V6H42.0117V7.5H40.5117V9H39.0117V12H40.5117V13.5H42.0117V15H43.5117V16.5H45.0117V18H46.5117V21H40.5117V19.5H39.0117V18H37.5117V16.5H36.0117V15H34.5117V21H27.0117ZM49.5176 1.5V-1.43051e-06H66.0176V1.5H67.5176V21H60.0176V12H55.5176V21H48.0176V1.5H49.5176ZM60.0176 9V3H55.5176V9H60.0176ZM69.0234 21V-1.43051e-06H76.5234V3H78.0234V6H79.5234V9H81.0234V-1.43051e-06H88.5234V21H81.0234V18H79.5234V15H78.0234V12H76.5234V21H69.0234ZM102.029 18V-1.43051e-06H109.529V19.5H108.029V21H91.5293V19.5H90.0293V12H97.5293V18H102.029ZM111.035 3V-1.43051e-06H124.535V3H121.535V18H124.535V21H111.035V18H114.035V3H111.035ZM0 63V42H9V45H10.5V48H12V51H13.5V48H15V45H16.5V42H25.5V63H18V55.5H16.5V58.5H15V61.5H10.5V58.5H9V55.5H7.5V63H0ZM28.5117 43.5V42H45.0117V43.5H46.5117V61.5H45.0117V63H28.5117V61.5H27.0117V43.5H28.5117ZM39.0117 60V45H34.5117V60H39.0117ZM48.0176 63V42H55.5176V45H57.0176V48H58.5176V51H60.0176V42H67.5176V63H60.0176V60H58.5176V57H57.0176V54H55.5176V63H48.0176ZM70.5234 43.5V42H87.0234V43.5H88.5234V48H81.0234V45H76.5234V48H78.0234V49.5H81.0234V51H84.0234V52.5H87.0234V54H88.5234V61.5H87.0234V63H70.5234V61.5H69.0234V57H76.5234V60H81.0234V57H79.5234V55.5H76.5234V54H73.5234V52.5H70.5234V51H69.0234V43.5H70.5234ZM90.0293 45V42H109.529V45H103.529V63H96.0293V45H90.0293ZM111.035 63V42H130.535V45H118.535V51H130.535V54H118.535V60H130.535V63H111.035ZM132.041 63V42H150.041V43.5H151.541V52.5H150.041V54H148.541V57H150.041V60H151.541V63H144.041V60H142.541V57H141.041V54H139.541V63H132.041ZM144.041 51V45H139.541V51H144.041Z" fill="black"/>
</svg>
