<svg width="233" height="27" viewBox="0 0 233 27" fill="none" xmlns="http://www.w3.org/2000/svg">
<path d="M11.25 7.49999H22.5V22.5H18.75V26.25H11.25V22.5H15V11.25H11.25V22.5H7.5V26.25H0V22.5H3.75V11.25H0V7.49999H3.75V3.74999H11.25V7.49999ZM41.25 3.74999V11.25H30V3.74999H41.25ZM45 3.74999H52.5V22.5H48.75V26.25H30V22.5H41.25V18.75H45V3.74999ZM71.25 11.25V15H60V11.25H71.25ZM75 18.75V11.25H82.5V22.5H78.75V26.25H60V22.5H71.25V18.75H75ZM71.25 3.74999V7.49999H60V3.74999H71.25ZM78.75 -7.7486e-06V7.49999H75V-7.7486e-06H78.75ZM82.5 -7.7486e-06H86.25V7.49999H82.5V-7.7486e-06ZM112.5 7.49999H101.25V11.25H112.5V15H101.25V22.5H112.5V26.25H93.75V15H90V11.25H93.75V7.49999H90V3.74999H112.5V7.49999ZM131.25 3.74999V11.25H120V3.74999H131.25ZM135 3.74999H142.5V22.5H138.75V26.25H120V22.5H131.25V18.75H135V3.74999ZM150 3.74999H172.5V11.25H168.75V15H165V18.75H161.25V22.5H157.5V26.25H150V22.5H153.75V18.75H157.5V15H161.25V11.25H165V7.49999H150V3.74999ZM165 26.25V18.75H172.5V26.25H165ZM183.75 3.74999H202.5V22.5H198.75V26.25H187.5V22.5H195V15H187.5V18.75H180V7.49999H183.75V3.74999ZM187.5 11.25H195V7.49999H187.5V11.25ZM213.75 15H232.5V18.75H210V11.25H213.75V15Z" fill="black"/>
</svg>
